<?xml version="1.0" encoding="UTF-8" standalone="no"?>
<svg
   height="24"
   viewBox="0 -960 960 960"
   width="24"
   version="1.1"
   id="svg4"
   sodipodi:docname="radio_button_blue.svg"
   inkscape:version="1.2.1 (9c6d41e410, 2022-07-14)"
   xmlns:inkscape="http://www.inkscape.org/namespaces/inkscape"
   xmlns:sodipodi="http://sodipodi.sourceforge.net/DTD/sodipodi-0.dtd"
   xmlns="http://www.w3.org/2000/svg"
   xmlns:svg="http://www.w3.org/2000/svg">
  <defs
     id="defs8" />
  <sodipodi:namedview
     id="namedview6"
     pagecolor="#ffffff"
     bordercolor="#000000"
     borderopacity="0.25"
     inkscape:showpageshadow="2"
     inkscape:pageopacity="0.0"
     inkscape:pagecheckerboard="0"
     inkscape:deskcolor="#d1d1d1"
     showgrid="false"
     inkscape:zoom="17.4375"
     inkscape:cx="10.207885"
     inkscape:cy="20.817204"
     inkscape:window-width="1920"
     inkscape:window-height="1017"
     inkscape:window-x="-8"
     inkscape:window-y="-8"
     inkscape:window-maximized="1"
     inkscape:current-layer="svg4" />
  <path
     id="path2"
     style="fill:#0072be;fill-opacity:1;stroke:#0072be;stroke-opacity:1"
     d="M 480 -880 C 424.66672 -880 372.65099 -869.5156 323.98438 -848.51562 C 275.31776 -827.51565 233.03121 -798.96871 197.03125 -762.96875 C 161.03129 -726.96879 132.48435 -684.68224 111.48438 -636.01562 C 90.484396 -587.34901 80 -535.33328 80 -480 C 80 -424.66672 90.484396 -372.65099 111.48438 -323.98438 C 132.48435 -275.31776 161.03129 -233.03121 197.03125 -197.03125 C 233.03121 -161.03129 275.31776 -132.48435 323.98438 -111.48438 C 372.65099 -90.484396 424.66672 -80 480 -80 C 535.33328 -80 587.34901 -90.484396 636.01562 -111.48438 C 684.68224 -132.48435 726.96879 -161.03129 762.96875 -197.03125 C 798.96871 -233.03121 827.51565 -275.31776 848.51562 -323.98438 C 869.5156 -372.65099 880 -424.66672 880 -480 C 880 -535.33328 869.5156 -587.34901 848.51562 -636.01562 C 827.51565 -684.68224 798.96871 -726.96879 762.96875 -762.96875 C 726.96879 -798.96871 684.68224 -827.51565 636.01562 -848.51562 C 587.34901 -869.5156 535.33328 -880 480 -880 z M 480 -728.59375 C 514.38993 -728.59375 546.70656 -722.11409 576.95312 -709.0625 C 607.1997 -696.0109 633.4852 -678.23355 655.85938 -655.85938 C 678.23355 -633.48522 696.0109 -607.19969 709.0625 -576.95312 C 722.1141 -546.70656 728.59375 -514.38993 728.59375 -480 C 728.59375 -445.61007 722.1141 -413.29344 709.0625 -383.04688 C 696.0109 -352.80031 678.23355 -326.5148 655.85938 -304.14062 C 633.4852 -281.76645 607.1997 -263.9891 576.95312 -250.9375 C 546.70656 -237.88591 514.38993 -231.40625 480 -231.40625 C 445.61007 -231.40625 413.29344 -237.88591 383.04688 -250.9375 C 352.80031 -263.9891 326.5148 -281.76645 304.14062 -304.14062 C 281.76645 -326.5148 263.98909 -352.80031 250.9375 -383.04688 C 237.8859 -413.29344 231.40625 -445.61007 231.40625 -480 C 231.40625 -514.38993 237.8859 -546.70656 250.9375 -576.95312 C 263.98909 -607.19969 281.76645 -633.48522 304.14062 -655.85938 C 326.5148 -678.23355 352.80031 -696.0109 383.04688 -709.0625 C 413.29344 -722.11409 445.61007 -728.59375 480 -728.59375 z " />
  <path
     d="m 480.0156,-318.58192 q -33.49749,0 -62.95913,-12.71289 -29.46165,-12.71291 -51.25519,-34.50646 -21.79355,-21.79354 -34.50645,-51.25518 -12.7129,-29.46165 -12.7129,-62.95914 0,-33.49749 12.7129,-62.95913 12.7129,-29.46165 34.50645,-51.25519 21.79354,-21.79355 51.25519,-34.50644 29.46164,-12.7129 62.95913,-12.7129 33.49749,0 62.95914,12.7129 29.46164,12.71289 51.25519,34.50644 21.79355,21.79354 34.50645,51.25519 12.71291,29.46164 12.71291,62.95913 0,33.49749 -12.71291,62.95914 -12.7129,29.46164 -34.50645,51.25518 -21.79355,21.79355 -51.25519,34.50646 -29.46165,12.71289 -62.95914,12.71289 z m 0,-32.28672 q 54.08029,0 91.61362,-37.53334 37.53333,-37.53332 37.53333,-91.61361 0,-54.08028 -37.53333,-91.61362 -37.53333,-37.53332 -91.61362,-37.53332 -54.08027,0 -91.61361,37.53332 -37.53333,37.53334 -37.53333,91.61362 0,54.08029 37.53333,91.61361 37.53334,37.53334 91.61361,37.53334 z m 0,0 q -54.08027,0 -91.61361,-37.53334 -37.53333,-37.53332 -37.53333,-91.61361 0,-54.08028 37.53333,-91.61362 37.53334,-37.53332 91.61361,-37.53332 54.08029,0 91.61362,37.53332 37.53333,37.53334 37.53333,91.61362 0,54.08029 -37.53333,91.61361 -37.53333,37.53334 -91.61362,37.53334 z"
     id="path2-1"
     style="fill:#0072be;fill-opacity:1;stroke:#0072be;stroke-width:0.999999;stroke-opacity:1" />
</svg>
