<?xml version="1.0" encoding="UTF-8" standalone="no"?>
<svg
   height="24"
   viewBox="0 -960 960 960"
   width="24"
   version="1.1"
   id="svg4"
   sodipodi:docname="radio_button_blue.svg"
   inkscape:version="1.2.1 (9c6d41e410, 2022-07-14)"
   xmlns:inkscape="http://www.inkscape.org/namespaces/inkscape"
   xmlns:sodipodi="http://sodipodi.sourceforge.net/DTD/sodipodi-0.dtd"
   xmlns="http://www.w3.org/2000/svg"
   xmlns:svg="http://www.w3.org/2000/svg">
  <defs
     id="defs8" />
  <sodipodi:namedview
     id="namedview6"
     pagecolor="#ffffff"
     bordercolor="#000000"
     borderopacity="0.25"
     inkscape:showpageshadow="2"
     inkscape:pageopacity="0.0"
     inkscape:pagecheckerboard="0"
     inkscape:deskcolor="#d1d1d1"
     showgrid="false"
     inkscape:zoom="17.4375"
     inkscape:cx="3.3261649"
     inkscape:cy="20.817204"
     inkscape:window-width="1920"
     inkscape:window-height="1017"
     inkscape:window-x="-8"
     inkscape:window-y="-8"
     inkscape:window-maximized="1"
     inkscape:current-layer="svg4" />
  <path
     id="path2"
     style="fill:#0072be;fill-opacity:1;stroke:#0072be;stroke-width:1;stroke-opacity:1"
     d="m 480.00003,-959.50003 c -66.33077,0 -128.68463,12.56817 -187.02373,37.74189 -58.33911,25.17372 -109.03012,59.39436 -152.18506,102.54932 -43.154954,43.15495 -77.375603,93.84595 -102.549317,152.18507 -25.173732,58.3391 -37.74190167,120.69295 -37.74190167,187.02372 0,66.33077 12.56816967,128.68463 37.74190167,187.02373 25.173714,58.33911 59.394363,109.03012 102.549317,152.18506 43.15494,43.154954 93.84595,77.375603 152.18506,102.549317 58.3391,25.173732 120.69296,37.74190167 187.02373,37.74190167 66.33077,0 128.68462,-12.56816967 187.02372,-37.74190167 58.33912,-25.173714 109.03012,-59.394363 152.18507,-102.549317 43.15496,-43.15494 77.3756,-93.84595 102.54932,-152.18506 25.17372,-58.3391 37.74189,-120.69296 37.74189,-187.02373 0,-66.33077 -12.56817,-128.68462 -37.74189,-187.02372 -25.17372,-58.33912 -59.39436,-109.03012 -102.54932,-152.18507 -43.15495,-43.15496 -93.84595,-77.3756 -152.18507,-102.54932 -58.3391,-25.17372 -120.69295,-37.74189 -187.02372,-37.74189 z m 0,181.49824 c 41.22493,0 79.96449,7.76749 116.22255,23.41308 36.25809,15.64561 67.76783,36.95621 94.58888,63.77725 26.82104,26.82102 48.13164,58.3308 63.77725,94.58888 15.6456,36.25806 23.41308,74.99762 23.41308,116.22255 0,41.22494 -7.76748,79.96449 -23.41308,116.22255 -15.64561,36.25808 -36.95621,67.76784 -63.77725,94.58888 -26.82105,26.82104 -58.33079,48.13164 -94.58888,63.77725 -36.25806,15.64559 -74.99762,23.41308 -116.22255,23.41308 -41.22494,0 -79.96449,-7.76749 -116.22255,-23.41308 -36.25808,-15.64561 -67.76784,-36.95621 -94.58888,-63.77725 -26.82104,-26.82104 -48.13165,-58.3308 -63.77725,-94.58888 -15.6456,-36.25806 -23.41308,-74.99761 -23.41308,-116.22255 0,-41.22493 7.76748,-79.96449 23.41308,-116.22255 15.6456,-36.25808 36.95621,-67.76786 63.77725,-94.58888 26.82104,-26.82104 58.3308,-48.13164 94.58888,-63.77725 36.25806,-15.64559 74.99761,-23.41308 116.22255,-23.41308 z" />
  <path
     d="m 480.01871,-231.44634 q -51.57876,0 -96.94321,-19.57506 -45.36447,-19.57508 -78.92173,-53.13236 -33.55728,-33.55727 -53.13236,-78.92172 -19.57507,-45.36446 -19.57507,-96.94323 0,-51.57878 19.57507,-96.94324 19.57508,-45.36446 53.13236,-78.92172 33.55726,-33.55728 78.92173,-53.13234 45.36445,-19.57507 96.94321,-19.57507 51.57878,0 96.94325,19.57507 45.36445,19.57506 78.92173,53.13234 33.55728,33.55726 53.13236,78.92172 19.57508,45.36446 19.57508,96.94324 0,51.57877 -19.57508,96.94323 -19.57508,45.36445 -53.13236,78.92172 -33.55728,33.55728 -78.92173,53.13236 -45.36447,19.57506 -96.94325,19.57506 z m 0,-49.71446 q 83.27178,0 141.06486,-57.79309 57.79307,-57.79307 57.79307,-141.06482 0,-83.27176 -57.79307,-141.06486 -57.79308,-57.79305 -141.06486,-57.79305 -83.27172,0 -141.06482,57.79305 -57.79306,57.7931 -57.79306,141.06486 0,83.27175 57.79306,141.06482 57.7931,57.79309 141.06482,57.79309 z m 0,0 q -83.27172,0 -141.06482,-57.79309 -57.79306,-57.79307 -57.79306,-141.06482 0,-83.27176 57.79306,-141.06486 57.7931,-57.79305 141.06482,-57.79305 83.27178,0 141.06486,57.79305 57.79307,57.7931 57.79307,141.06486 0,83.27175 -57.79307,141.06482 -57.79308,57.79309 -141.06486,57.79309 z"
     id="path2-1"
     style="fill:#0072be;fill-opacity:1;stroke:#0072be;stroke-width:0.999998;stroke-opacity:1" />
</svg>
